<svg width="40" height="41" viewBox="0 0 40 41" fill="none" xmlns="http://www.w3.org/2000/svg">
<rect y="0.5" width="40" height="40" rx="20" fill="#DD9642"/>
<path d="M25.1689 25.8422C26.5312 25.8422 27.2534 26.1439 28.0417 26.6233L28.0501 26.61V33.2211H11.9484V26.61L11.9028 26.5267C12.6695 26.1033 13.3406 25.8422 14.6084 25.8422L14.6584 25.8356C14.6584 25.8356 14.8128 32.4156 19.6123 33.0356H20.0845C24.8845 32.4156 25.0389 25.8356 25.0389 25.8356" fill="#3F3F3F"/>
<path d="M30.6912 23.1933L32.2628 21.6222L36.3601 25.7194L34.7889 27.2906L30.6912 23.1933Z" fill="#9B9B9A"/>
<path d="M29.79 23.0478C31.0173 23.0478 32.0122 22.0529 32.0122 20.8256C32.0122 19.5983 31.0173 18.6033 29.79 18.6033C28.5627 18.6033 27.5677 19.5983 27.5677 20.8256C27.5677 22.0529 28.5627 23.0478 29.79 23.0478Z" fill="#D0CFCE"/>
<path d="M32.2367 24.2744C31.5023 24.0717 31.2123 23.2322 31.2645 22.4756C30.3923 23.2556 29.0562 23.2344 28.2189 22.3967C28.0126 22.1903 27.8489 21.9453 27.7372 21.6757C27.6255 21.4061 27.568 21.1171 27.568 20.8253C27.568 20.5334 27.6255 20.2445 27.7372 19.9748C27.8489 19.7052 28.0126 19.4602 28.2189 19.2539C28.4378 19.0359 28.7 18.8663 28.9885 18.7559C29.277 18.6456 29.5855 18.597 29.8939 18.6133C29.6362 18.1283 29.6745 17.3128 29.4617 16.4767C29.4617 16.4767 29.2245 16.2944 29.1806 16.0422C29.1429 15.8134 29.0962 15.5862 29.0406 15.3611C28.7251 14.1222 28.3262 11.0289 24.4001 8.30944C23.0545 7.37778 21.6973 8.605 21.6973 8.605L21.5251 8.47778C21.5251 8.47778 19.4323 5.05055 15.7112 8.025C11.9901 11 11.3856 13.8378 11.0706 15.0767C10.7551 16.3156 10.8817 17.5289 9.87228 17.65C8.86228 17.7711 8.35672 19.3861 8.86228 20.1556C9.36783 20.9256 9.24172 22.5789 8.1695 22.8744C7.09728 23.17 6.60172 25.2578 7.12894 26.1422C7.44561 26.7672 8.35617 27.7478 9.88283 28.6517C10.5606 26.9639 11.9873 25.4556 14.9234 25.4556C16.6845 26.6244 18.1956 27.4333 19.8889 27.4406C21.5823 27.4333 23.0928 26.6244 24.8539 25.4556C27.8695 25.4556 29.2912 27.0239 29.9467 28.7417C30.9966 28.3769 32.0338 27.9769 33.0567 27.5422C34.6478 26.8656 33.3089 24.57 32.2367 24.2744Z" fill="black"/>
<path d="M12.2222 25.8556V32.3094M28.3238 25.8556V32.3411M26.4966 18.73C25.4049 17.8806 26.4727 14.8828 26.4727 14.8828C25.2349 14.6144 21.9088 10.3461 21.9088 10.3461C21.9088 10.3461 21.5227 11.5722 20.4311 12.0572L20.0066 9.38889C20.0066 9.38889 16.5344 14.3717 13.8733 14.8828C13.8733 14.8828 15.8816 17.2744 13.9405 18.245C11.9994 19.2156 12.5222 20.9744 13.3716 21.1561L26.4966 18.73ZM25.3127 25.0817C25.3127 25.0817 25.1583 31.6617 20.3583 32.2806H19.8861C15.0861 31.6617 14.9316 25.0817 14.9316 25.0817H25.3127Z" stroke="black" stroke-width="2" stroke-miterlimit="10" stroke-linecap="round" stroke-linejoin="round"/>
<path d="M13.4839 18.8333C14.23 22.1422 16.6617 24.5667 19.5478 24.5667C22.3089 24.5667 24.6561 22.3456 25.5061 19.2533L13.4839 18.8333ZM30 33.0778C30 33.0778 31.1111 25.8556 24.4445 25.8556C22.6717 27.0372 21.1522 27.8545 19.4445 27.8511H19.5139C17.8067 27.8545 16.2872 27.0372 14.5139 25.8556C7.84725 25.8556 8.95836 33.0778 8.95836 33.0778H30ZM30.2817 23.5933L31.8534 22.0222L35.9506 26.1195L34.3795 27.6906L30.2817 23.5933Z" stroke="black" stroke-width="2" stroke-miterlimit="10" stroke-linecap="round" stroke-linejoin="round"/>
<path d="M21.0034 8.67622C21.0034 8.67622 22.3089 7.449 23.6034 8.38067C27.3795 11.1007 27.7634 14.1934 28.0667 15.4323C28.1228 15.6623 28.1645 15.8918 28.2011 16.1134C28.2434 16.3657 28.2789 16.6079 28.3222 16.8301M35.0556 26.789L36.6367 28.3701L35.0556 26.789ZM32.0561 25.5651V33.3429V25.5651ZM20.8378 8.83344C20.8378 8.83344 18.825 5.40622 15.2461 8.38067C11.6672 11.3551 11.0856 14.1934 10.7822 15.4323C10.4795 16.6712 10.6011 17.8846 9.63003 18.0057C8.65891 18.1273 8.1728 19.7418 8.65892 20.5112C9.14447 21.2812 9.02336 22.9346 7.99225 23.2301C6.96114 23.5257 6.05114 25.2846 7.20336 26.4979L20.8378 8.83344Z" stroke="black" stroke-width="2" stroke-miterlimit="10" stroke-linecap="round" stroke-linejoin="round"/>
<path d="M13.7856 14.9661C13.2689 15.0194 14.5239 16.4817 14.5239 17.0256C14.5239 17.6772 13.7211 17.8383 13.8406 18.4439C14.5183 21.8794 16.9995 24.4272 19.9572 24.4272C23.4361 24.4272 26.2561 20.9017 26.2561 16.5528C26.2561 16.0094 26.2117 15.4783 26.1283 14.9661C26.1283 14.9661 22.3856 13.03 21.4778 11.1861V10.8711C21.4778 10.8711 21.0145 12.1044 20.1572 12.425L19.7328 9.75611C19.7328 9.75611 16.5361 14.6822 13.7856 14.9661ZM24.8539 25.4556C23.0928 26.6244 21.5822 27.4333 19.8889 27.4406C18.1956 27.4333 16.6844 26.6244 14.9233 25.455C8.25667 25.455 9.36778 33.2306 9.36778 33.2306L11.9483 33.2172V26.61L11.9028 26.5267C12.6695 26.1033 13.3406 25.8422 14.6083 25.8422L14.6583 25.8356C14.6583 25.8356 14.8128 32.4156 19.6122 33.0356H20.0844C24.8844 32.4156 25.0389 25.8356 25.0389 25.8356L25.1694 25.8422C26.5306 25.8422 27.2533 26.1439 28.0417 26.6233L28.05 26.61V33.1328L30.41 33.1206C30.41 33.1206 31.5211 25.4556 24.8544 25.4556H24.8539Z" fill="#6A462F"/>
<path d="M23.2906 15.5372C23.2904 15.8321 23.1732 16.1148 22.9646 16.3231C22.756 16.5315 22.4732 16.6485 22.1784 16.6483C21.8835 16.6482 21.6008 16.5309 21.3925 16.3223C21.1841 16.1138 21.0671 15.8309 21.0672 15.5361C21.0674 15.2413 21.1847 14.9586 21.3932 14.7502C21.6018 14.5418 21.8846 14.4249 22.1795 14.425C22.4743 14.4252 22.757 14.5424 22.9654 14.751C23.1737 14.9596 23.2907 15.2424 23.2906 15.5372ZM18.8461 15.5372C18.846 15.8321 18.7287 16.1148 18.5201 16.3231C18.3116 16.5315 18.0287 16.6485 17.7339 16.6483C17.4391 16.6482 17.1564 16.5309 16.948 16.3223C16.7396 16.1138 16.6227 15.8309 16.6228 15.5361C16.6229 15.3901 16.6517 15.2456 16.7076 15.1107C16.7636 14.9759 16.8455 14.8534 16.9488 14.7502C17.0521 14.647 17.1747 14.5652 17.3096 14.5094C17.4445 14.4536 17.589 14.4249 17.735 14.425C17.881 14.4251 18.0256 14.4539 18.1604 14.5098C18.2952 14.5658 18.4178 14.6477 18.5209 14.751C18.6241 14.8543 18.7059 14.9769 18.7617 15.1118C18.8175 15.2467 18.8462 15.3912 18.8461 15.5372ZM19.9567 21.0944C19.3172 21.0944 18.6772 20.935 18.0417 20.6172C17.9764 20.5846 17.9182 20.5394 17.8704 20.4843C17.8226 20.4291 17.7862 20.3651 17.7631 20.2959C17.7401 20.2266 17.7309 20.1536 17.736 20.0808C17.7412 20.008 17.7607 19.9369 17.7934 19.8717C17.826 19.8064 17.8712 19.7482 17.9263 19.7004C17.9815 19.6526 18.0455 19.6162 18.1147 19.5931C18.1839 19.57 18.257 19.5608 18.3298 19.566C18.4026 19.5712 18.4737 19.5907 18.5389 19.6233C19.4934 20.1011 20.4206 20.1011 21.375 19.6233C21.4403 19.5907 21.5114 19.5712 21.5842 19.566C21.657 19.5609 21.7302 19.5701 21.7994 19.5932C21.8687 19.6163 21.9327 19.6528 21.9879 19.7006C22.043 19.7484 22.0882 19.8067 22.1209 19.8719C22.1535 19.9372 22.173 20.0083 22.1781 20.0812C22.1833 20.154 22.1741 20.2271 22.151 20.2964C22.1279 20.3656 22.0914 20.4296 22.0436 20.4848C21.9958 20.5399 21.9375 20.5851 21.8722 20.6178C21.2367 20.935 20.5967 21.0939 19.9572 21.0939L19.9567 21.0944Z" fill="black"/>
<path d="M29.79 23.0478C31.0173 23.0478 32.0122 22.0529 32.0122 20.8256C32.0122 19.5983 31.0173 18.6033 29.79 18.6033C28.5627 18.6033 27.5677 19.5983 27.5677 20.8256C27.5677 22.0529 28.5627 23.0478 29.79 23.0478Z" stroke="black" stroke-width="2" stroke-miterlimit="10" stroke-linecap="round" stroke-linejoin="round"/>
</svg>
